<svg xmlns="http://www.w3.org/2000/svg" viewBox="0 -960 960 960"><path d="M342.218-280 480-417.782 617.782-280 680-342.218 542.218-480 680-617.782 617.782-680 480-542.218 342.218-680 280-617.782 417.782-480 280-342.218 342.218-280ZM480-60.782q-87.522 0-163.906-32.96-76.385-32.96-132.888-89.464-56.504-56.503-89.464-132.888Q60.782-392.478 60.782-480t32.96-163.906q32.96-76.385 89.464-132.888 56.503-56.504 132.888-89.464 76.384-32.96 163.906-32.96t163.906 32.96q76.385 32.96 132.888 89.464 56.504 56.503 89.464 132.888 32.96 76.384 32.96 163.906t-32.96 163.906q-32.96 76.385-89.464 132.888-56.503 56.504-132.888 89.464Q567.522-60.782 480-60.782Zm0-106.001q131.739 0 222.478-90.739T793.217-480q0-131.739-90.739-222.478T480-793.217q-131.739 0-222.478 90.739T166.783-480q0 131.739 90.739 222.478T480-166.783ZM480-480Z"/></svg>