<svg xmlns="http://www.w3.org/2000/svg" viewBox="0 -960 960 960"><path d="m647.391-437.609-82.305-82.306q5.043-26.651-15.978-50.694-21.021-24.042-53.715-18.999l-77.784-77.783q15.304-6.305 30.826-9.457Q463.957-680 480-680q75 0 127.5 52.5T660-500q0 14.913-3.152 31.565t-9.457 30.826Zm142.697 141.827-69.305-68.436q34.043-27.869 61-60.391Q808.739-457.13 830.87-500q-51.131-100.435-143.5-160.217Q595-720 480-720q-29 0-53.891 3.435t-47.935 9.739l-76.696-76.697q41-17 86.261-25.5 45.261-8.5 92.261-8.5 154.391 0 277.196 86.327Q880.001-644.87 937.523-500q-23 60.13-61.631 112.891-38.63 52.761-85.804 91.327Zm-4.871 246.565L627.391-205.608q-33.869 11.565-70.5 17.348-36.63 5.783-76.891 5.783-154.957 0-277.761-86.892Q79.434-356.26 22.477-500q20.435-51.87 53-99.348 32.566-47.478 72.435-85.739L40.173-793.696l62.218-62.217L846.87-110.87l-61.653 61.653ZM216.913-617.782q-27.87 27.13-48.761 54.739-20.891 27.608-38.456 63.043 50 101 142.652 160.5Q365-280 480-280q14.913 0 31.369-1.652 16.457-1.652 36.457-4.652l-36-38q-8.174 2.434-15.913 3.369Q488.174-320 480-320q-75 0-127.5-52.5T300-500q0-7.609.652-15.63.652-8.022 2.522-16.196l-86.261-85.956Zm332.566 82.26Zm-167.392 83.479Z"/></svg>